<svg width="24" height="24" viewBox="0 0 24 24" fill="none" xmlns="http://www.w3.org/2000/svg">
<path d="M2.63333 10.3178V9.81785V3.83335V3.83272H3.13333C3.13271 3.60732 3.17692 3.38404 3.26339 3.1758C3.34986 2.96757 3.47688 2.77851 3.6371 2.61957L2.63333 10.3178ZM2.63333 10.3178H3.13333H15.9333H16.5V10.3819H15.9333H15.4333V10.8819V11.9026C15.4333 11.9026 15.4333 11.9026 15.4333 11.9027C15.4333 11.9345 15.4282 11.9661 15.418 11.9963L15.418 11.9965L14.4258 14.9658L14.4256 14.9663C14.406 15.0253 14.3681 15.0769 14.3171 15.1136C14.2661 15.1502 14.2046 15.17 14.1415 15.17H14.141H13.45H12.7775L12.9712 15.814L13.1775 16.5H13.1084L12.8155 15.526L12.7084 15.17H12.3367H5.4H5.02526L4.92009 15.5296L4.63636 16.5H4.56712L4.76878 15.8103L4.95599 15.17H4.28887H3.85887H3.85845C3.79532 15.17 3.73389 15.1502 3.6829 15.1136C3.63194 15.0769 3.59404 15.0253 3.57438 14.9663L3.57422 14.9658L2.58195 11.9965L2.5819 11.9964C2.5718 11.9662 2.56666 11.9346 2.56667 11.9028V11.9027V10.8819V10.3819H2.06667H1.5V10.3178H2.06667H2.56667V9.81785L2.56667 3.83272L2.56666 3.83135C2.56585 3.53245 2.62447 3.23632 2.73917 2.96011C2.85388 2.68388 3.0224 2.43302 3.23504 2.22206L3.23504 2.22206L3.23601 2.2211L3.24933 2.20782C3.24933 2.20781 3.24934 2.2078 3.24935 2.2078C3.61625 1.84186 4.0972 1.6111 4.61328 1.55371C5.12937 1.49632 5.6496 1.61575 6.08846 1.89221L6.36793 2.06827L6.63953 1.88028C7.05048 1.59585 7.54863 1.46416 8.04714 1.50839C8.54565 1.55261 9.01259 1.7699 9.36665 2.1221L9.73119 2.48574L10.0843 2.83797L10.4374 2.48575L10.7562 2.16773L10.8025 2.21387L10.4855 2.53011L6.76249 6.24379L6.76249 6.24379L6.4437 6.56178L6.39748 6.51568L6.71452 6.1994L7.06938 5.84541L6.71451 5.49143L6.34995 5.12776C6.34992 5.12774 6.3499 5.12771 6.34987 5.12769C6.0136 4.79132 5.79982 4.35269 5.74225 3.88156C5.68468 3.4104 5.7866 2.93348 6.03196 2.52655L6.31799 2.05216L5.81687 1.81606C5.40305 1.62109 4.93908 1.55835 4.48828 1.63634C4.03747 1.71432 3.62161 1.92926 3.29758 2.25201L3.29732 2.25227L3.28496 2.2646C3.2848 2.26477 3.28463 2.26493 3.28446 2.2651L2.63333 10.3178ZM13.9721 15.67H14.141C14.309 15.6701 14.4727 15.6175 14.6089 15.5195C14.7452 15.4216 14.847 15.2833 14.9 15.1243L13.9721 15.67ZM13.9721 15.67L13.9288 15.526L13.45 15.67V16.17H13.6004L13.6996 16.5L13.9721 15.67ZM4.28887 15.67L4.14268 16.17H4.28887V15.67ZM4.28887 15.67L3.85887 15.5443L3.85876 15.5442L3.80896 15.5297L3.76938 15.665L4.28887 15.67ZM2.06667 11.3819V11.9027L1.5 10.8819H1.56667H2.06667V11.3819ZM6.39794 2.1656L6.39715 2.16639C6.01028 2.55317 5.79279 3.0775 5.79279 3.62442C5.79279 4.17133 6.01028 4.69567 6.39715 5.08245L6.39758 5.08288L6.76262 5.44694L7.11573 5.79912L7.46881 5.44691L9.68311 3.2381L10.038 2.88414L9.68315 2.53015L9.31818 2.16602L9.31776 2.1656C8.93007 1.77971 8.40501 1.56321 7.85785 1.56321C7.31069 1.56321 6.78563 1.77971 6.39794 2.1656ZM15.3409 12.0179L15.3667 11.9408V11.8594V10.8819V10.3819H14.8667H3.13333H2.63333V10.8819V11.8594V11.9408L2.65911 12.0179L3.57684 14.7644L3.69096 15.1059H4.05107H13.9489H14.309L14.4232 14.7644L15.3409 12.0179Z" fill="black" stroke="black"/>
</svg>
