<svg width="24" height="24" viewBox="0 0 24 24" fill="none" xmlns="http://www.w3.org/2000/svg">
<path d="M5 13L6.5 8.49999H17.5L19 13H5ZM17.5 18C17.1022 18 16.7206 17.842 16.4393 17.5606C16.158 17.2793 16 16.8978 16 16.5C16 16.1022 16.158 15.7206 16.4393 15.4393C16.7206 15.158 17.1022 15 17.5 15C17.8978 15 18.2794 15.158 18.5607 15.4393C18.842 15.7206 19 16.1022 19 16.5C19 16.8978 18.842 17.2793 18.5607 17.5606C18.2794 17.842 17.8978 18 17.5 18ZM6.5 18C6.10218 18 5.72064 17.842 5.43934 17.5606C5.15804 17.2793 5 16.8978 5 16.5C5 16.1022 5.15804 15.7206 5.43934 15.4393C5.72064 15.158 6.10218 15 6.5 15C6.89782 15 7.27936 15.158 7.56066 15.4393C7.84196 15.7206 8 16.1022 8 16.5C8 16.8978 7.84196 17.2793 7.56066 17.5606C7.27936 17.842 6.89782 18 6.5 18ZM18.92 7.99999C18.72 7.41999 18.16 6.99999 17.5 6.99999H6.5C5.84 6.99999 5.28 7.41999 5.08 7.99999L3 14V22C3 22.2652 3.10536 22.5196 3.29289 22.7071C3.48043 22.8946 3.73478 23 4 23H5C5.26522 23 5.51957 22.8946 5.70711 22.7071C5.89464 22.5196 6 22.2652 6 22V21H18V22C18 22.2652 18.1054 22.5196 18.2929 22.7071C18.4804 22.8946 18.7348 23 19 23H20C20.2652 23 20.5196 22.8946 20.7071 22.7071C20.8946 22.5196 21 22.2652 21 22V14L18.92 7.99999ZM7 4.99999C7.39782 4.99999 7.77936 4.84195 8.06066 4.56065C8.34196 4.27934 8.5 3.89781 8.5 3.49999C8.5 2.49999 7 0.799988 7 0.799988C7 0.799988 5.5 2.49999 5.5 3.49999C5.5 3.89781 5.65804 4.27934 5.93934 4.56065C6.22064 4.84195 6.60218 4.99999 7 4.99999ZM12 4.99999C12.3978 4.99999 12.7794 4.84195 13.0607 4.56065C13.342 4.27934 13.5 3.89781 13.5 3.49999C13.5 2.49999 12 0.799988 12 0.799988C12 0.799988 10.5 2.49999 10.5 3.49999C10.5 3.89781 10.658 4.27934 10.9393 4.56065C11.2206 4.84195 11.6022 4.99999 12 4.99999ZM17 4.99999C17.3978 4.99999 17.7794 4.84195 18.0607 4.56065C18.342 4.27934 18.5 3.89781 18.5 3.49999C18.5 2.49999 17 0.799988 17 0.799988C17 0.799988 15.5 2.49999 15.5 3.49999C15.5 3.89781 15.658 4.27934 15.9393 4.56065C16.2206 4.84195 16.6022 4.99999 17 4.99999Z" fill="black"/>
</svg>
