<svg width="22" height="21" viewBox="0 0 22 21" fill="none" xmlns="http://www.w3.org/2000/svg">
<g clip-path="url(#clip0)">
<path d="M10.8861 10.4426C13.2769 10.4426 15.2151 8.50447 15.2151 6.1136C15.2151 3.72273 13.2769 1.78455 10.8861 1.78455C8.49519 1.78455 6.55701 3.72273 6.55701 6.1136C6.55701 8.50447 8.49519 10.4426 10.8861 10.4426Z" stroke="black" stroke-width="2" stroke-linecap="round" stroke-linejoin="round"/>
<path d="M15.2151 12.1743H15.5198C16.1528 12.1744 16.764 12.4057 17.2384 12.8247C17.7129 13.2437 18.018 13.8215 18.0965 14.4496L18.435 17.1544C18.4655 17.3981 18.4438 17.6454 18.3713 17.88C18.2989 18.1147 18.1773 18.3312 18.0148 18.5153C17.8523 18.6993 17.6524 18.8467 17.4286 18.9477C17.2047 19.0486 16.962 19.1008 16.7164 19.1007H5.05567C4.81011 19.1008 4.56735 19.0486 4.34349 18.9477C4.11964 18.8467 3.91981 18.6993 3.75728 18.5153C3.59474 18.3312 3.47321 18.1147 3.40076 17.88C3.32831 17.6454 3.30658 17.3981 3.33703 17.1544L3.6747 14.4496C3.75323 13.8212 4.05861 13.2432 4.53344 12.8241C5.00826 12.4051 5.61981 12.174 6.25308 12.1743H6.55698" stroke="black" stroke-width="2" stroke-linecap="round" stroke-linejoin="round"/>
</g>
<defs>
<clipPath id="clip0">
<rect width="20.7794" height="20.7794" fill="white" transform="translate(0.496338 0.0529175)"/>
</clipPath>
</defs>
</svg>
