<svg width="24" height="24" viewBox="0 0 24 24" fill="none" xmlns="http://www.w3.org/2000/svg">
<path d="M22.0781 15.4688V19.3125H24V13.5469H1.92188V5.67188C1.92188 5.42175 1.82812 5.1952 1.64062 4.99219C1.45312 4.78908 1.22658 4.6875 0.960938 4.6875C0.695297 4.6875 0.46875 4.78908 0.28125 4.99219C0.09375 5.1953 0 5.42189 0 5.67188V19.3125H1.92188V15.4688H22.0781Z" fill="#010002"/>
<path d="M4.94531 9.60938C5.42967 9.60938 5.85155 9.43748 6.21094 9.09375C6.57033 8.74997 6.75 8.33588 6.75 7.85156C6.75 7.36711 6.57033 6.95306 6.21094 6.60938C5.85155 6.26564 5.42967 6.09375 4.94531 6.09375C4.46095 6.09375 4.04686 6.26564 3.70312 6.60938C3.35939 6.95311 3.1875 7.3672 3.1875 7.85156C3.1875 8.33592 3.35939 8.75002 3.70312 9.09375C4.04686 9.43748 4.46095 9.60938 4.94531 9.60938Z" fill="#010002"/>
<path d="M24 12.0938V9.75C24 9.375 23.8672 9.07031 23.6016 8.83594C23.3358 8.60156 22.9998 8.45311 22.5938 8.39062L8.67188 7.03125H8.57812C8.32814 7.03125 8.1172 7.11717 7.94531 7.28906C7.77342 7.46095 7.6875 7.67189 7.6875 7.92188V10.6406H4.125C3.53123 10.6406 3.23438 10.8828 3.23438 11.3672C3.23438 11.8515 3.53123 12.0938 4.125 12.0938H24Z" fill="#010002"/>
</svg>
