<?xml version="1.0" standalone="no"?>
<!DOCTYPE svg PUBLIC "-//W3C//DTD SVG 20010904//EN"
 "http://www.w3.org/TR/2001/REC-SVG-20010904/DTD/svg10.dtd">
<svg version="1.0" xmlns="http://www.w3.org/2000/svg"
 width="1280.000000pt" height="1175.000000pt" viewBox="0 0 1280.000000 1175.000000"
 preserveAspectRatio="xMidYMid meet">
<g transform="translate(0.000000,1175.000000) scale(0.100000,-0.100000)"
fill="#000000" stroke="none">
<path d="M9168 10314 c-727 -790 -1323 -1440 -1323 -1444 0 -11 2094 -1954
2109 -1958 8 -2 156 145 331 325 175 180 325 329 335 331 9 2 143 -96 321
-234 167 -130 323 -245 346 -256 101 -45 234 -31 327 34 44 32 1166 1243 1166
1259 0 5 -500 510 -1110 1123 l-1111 1114 6 189 c2 103 7 346 10 539 l6 352
-27 31 c-14 17 -34 31 -44 31 -11 0 -516 -540 -1342 -1436z"/>
<path d="M369 8559 c-66 -10 -145 -54 -212 -118 -66 -62 -96 -108 -132 -202
-30 -76 -31 -93 -4 -156 17 -41 45 -73 152 -169 72 -66 343 -310 602 -543 451
-406 470 -425 476 -465 3 -22 9 -187 13 -366 4 -179 11 -491 16 -695 13 -515
29 -1178 32 -1316 l2 -116 -185 -239 c-102 -131 -190 -247 -195 -256 -5 -10
-6 -102 -2 -230 34 -1005 49 -1455 58 -1703 12 -334 47 -1379 55 -1630 3 -93
8 -212 11 -262 l6 -93 694 0 694 0 0 108 c0 59 -5 289 -10 512 -26 1140 -31
1400 -23 1414 4 8 379 411 832 895 l824 881 1968 0 1969 0 0 -1856 0 -1856
638 6 c350 4 706 9 791 12 l154 6 -7 427 c-3 234 -11 671 -16 971 -5 300 -14
808 -20 1130 -5 322 -14 853 -20 1180 -6 327 -15 843 -20 1145 -5 303 -12 726
-16 942 l-7 392 -1095 1011 c-1053 973 -1096 1011 -1113 993 -9 -10 -66 -82
-126 -159 -207 -271 -333 -400 -476 -487 -107 -65 -164 -77 -412 -87 -262 -11
-1238 -42 -2180 -70 -374 -11 -831 -24 -1015 -30 -184 -5 -504 -14 -710 -20
-206 -5 -431 -12 -500 -15 l-125 -5 -120 121 c-340 342 -772 749 -940 882
-138 110 -198 133 -306 116z"/>
</g>
</svg>
