<svg width="29" height="17" viewBox="0 0 29 17" fill="none" xmlns="http://www.w3.org/2000/svg">
<g clip-path="url(#clip0)">
<path d="M13.9994 0.00901985C13.9949 0.0157757 13.8227 0.0315361 13.6165 0.0450459C10.8139 0.231934 8.06573 1.18438 5.34698 2.9114C3.05644 4.36597 0.818 6.48478 0.204015 7.77498C-0.0270787 8.26359 -0.0474693 8.53154 0.120187 8.87154C0.346749 9.32637 1.71745 10.799 2.83214 11.7852C6.27589 14.8294 9.99152 16.624 13.4579 16.9212C13.6754 16.9392 13.9609 16.964 14.0923 16.9775C14.4027 17.0068 14.6134 17.0068 14.7403 16.9752C14.8105 16.9572 14.8671 16.9572 14.9351 16.973C15.0303 16.9978 15.139 16.991 15.9501 16.919C19.4505 16.6082 23.0982 14.7596 26.4717 11.5848C27.4957 10.6211 28.6172 9.34664 28.9027 8.8175C29.0386 8.56756 29.0341 8.42346 28.8823 8.04968C28.6988 7.6016 28.1301 6.89909 27.2125 5.98717C25.0375 3.83008 22.3188 2.04902 19.6431 1.03352C18.2497 0.506636 16.7725 0.164385 15.4517 0.0675621C15.2704 0.0540524 15.0303 0.0337887 14.9147 0.0225296C14.7085 1.33514e-05 14.0175 -0.00899315 13.9994 0.00901985ZM15.3497 1.57617C17.7943 1.78332 20.3726 2.75829 22.8761 4.42001C24.4054 5.43551 25.8124 6.63789 26.8727 7.83577C27.0789 8.06769 27.3235 8.38068 27.3235 8.4122C27.3235 8.46849 26.671 9.21379 26.1432 9.76094C23.5468 12.4472 20.5199 14.3498 17.6697 15.0839C15.1028 15.7481 12.5177 15.5499 9.85558 14.4827C7.54238 13.5572 5.14081 11.9405 3.04284 9.89829C2.4198 9.2926 1.63136 8.43021 1.63136 8.35366C1.63136 8.30412 1.85792 7.97313 2.09581 7.67816C3.09269 6.44425 4.84175 4.98518 6.58175 3.93591C9.25066 2.32823 12.0192 1.49736 14.5568 1.54465C14.8445 1.54915 15.2002 1.56491 15.3497 1.57617Z" fill="black"/>
<path d="M14.2851 3.68372C14.2488 3.68822 14.1265 3.70398 14.0132 3.71749C13.252 3.80981 12.425 4.14531 11.7748 4.62266C11.5369 4.79604 11.12 5.20133 10.9206 5.44902C10.3927 6.1065 10.0733 6.84054 9.96 7.65339C9.91242 7.98438 9.91242 8.63286 9.96 8.96385C10.0959 9.93882 10.5423 10.8327 11.2378 11.5307C11.9424 12.2355 12.8917 12.7174 13.9135 12.8907C14.2602 12.9493 14.8424 12.9605 15.2027 12.9133C16.1021 12.8007 16.9517 12.4472 17.6586 11.8933C18.1457 11.515 18.7144 10.8237 18.839 10.459C18.8662 10.3824 18.8798 10.2631 18.8843 10.0874C18.8888 9.84875 18.8956 9.80822 18.9817 9.56955C19.2944 8.68465 19.2921 7.69167 18.9727 6.77074C18.5739 5.62465 17.7356 4.69246 16.6277 4.16557C16.1157 3.92465 15.47 3.75577 14.8923 3.71524C14.7201 3.70398 14.5298 3.69047 14.4663 3.68372C14.4052 3.67922 14.3236 3.67922 14.2851 3.68372Z" fill="black"/>
</g>
<defs>
<clipPath id="clip0">
<rect width="29" height="17" fill="white"/>
</clipPath>
</defs>
</svg>
